# xmcd
#
# Track frame offsets: 
#        182
#        9637
#        39767
#        54517
#        84307
#        94970
#        106372
#        123000
#        152772
#        165902
#
# Disc length: 2599 seconds
#
# Revision: 6
# Processed by: cddbd v1.5.2PL0 Copyright (c) Steve Scherf et al.
# Submitted via: ExactAudioCopy v0.99pb5
#
DISCID=660a250a
DTITLE=Jimmy Witherspoon and Robben Ford - Live
DYEAR=1976
DGENRE=Blues
TTITLE0=Low Down Dirty Shame
TTITLE1=Goin' Down Slow
TTITLE2=Kansas City
TTITLE3=Past Forty Blues
TTITLE4=Times Are Getting Tough
TTITLE5=Outskirts Of Town
TTITLE6=S.K. Blues
TTITLE7=Around The Clock
TTITLE8=Walkin' By Myself
TTITLE9=No Rollin' Blues
EXTD=
EXTT0=
EXTT1=
EXTT2=
EXTT3=
EXTT4=
EXTT5=
EXTT6=
EXTT7=
EXTT8=
EXTT9=
PLAYORDER=
